<svg xmlns="http://www.w3.org/2000/svg" xmlns:xlink="http://www.w3.org/1999/xlink" version="1.1" x="0px" y="0px" viewBox="0 0 100 100" style="enable-background:new 0 0 100 100;" xml:space="preserve"><path d="M41.5,59.8l-1.6,2.7h-4.8l2.9-2.7H41.5z M27.3,59.8l-4.7,2.7h4.8l3.4-2.7H27.3z M15.6,59.8l-5.8,2.7h4.8l4.4-2.7H15.6z   M69.1,59.8l3.4,2.7h4.8l-4.7-2.7H69.1z M80.6,59.8l4.4,2.7h4.8L84,59.8H80.6z M61.5,59.8H58l1.6,2.7h4.8L61.5,59.8z M51.8,59.8  h-4.2l-0.3,2.7h4.8L51.8,59.8z M45,42.5l-3.5,2.8c-0.1,0.1-0.2,0.2-0.2,0.4l-0.8,3.4v0.1c0,0.4,0.3,0.8,0.7,0.8s0.7-0.3,0.8-0.6  l0.6-2.9l1.2-1L42,53.7l-2.2,3.7c-0.1,0.1-0.1,0.3-0.2,0.5c-0.1,0.6,0.4,1.2,1.1,1.3c0.5,0,0.9-0.2,1.1-0.6l2.4-4  c0.1-0.1,0.2-0.4,0.2-0.5l0.6-2.7l2.5,2.7l0.8,4.1c0.1,0.5,0.5,0.9,1.1,0.9c0.6,0.1,1.2-0.4,1.3-1.1c0-0.1,0-0.1,0-0.2l-0.8-4.4  c0-0.1-0.1-0.3-0.1-0.4l-3.1-3.6l0.8-3.4l0.7,1.3c0,0.1,0.1,0.2,0.2,0.2l2.6,1.8c0.1,0.1,0.2,0.1,0.4,0.1c0.4,0,0.8-0.3,0.8-0.7  c0-0.3-0.1-0.5-0.3-0.7l-2.4-1.6L47.6,43c-0.3-0.5-0.8-0.8-1.4-0.9C45.8,42.1,45.4,42.2,45,42.5z M46.5,41.8c1,0.1,1.8-0.6,1.9-1.6  c0.1-1-0.6-1.8-1.6-1.9c-1-0.1-1.8,0.6-1.9,1.6C44.8,40.9,45.6,41.7,46.5,41.8z M32.2,42.5l-3.5,2.8c-0.1,0.1-0.2,0.2-0.2,0.4  l-0.8,3.4v0.1c0,0.4,0.3,0.8,0.7,0.8c0.4,0,0.7-0.3,0.8-0.6l0.6-2.9l1.2-1l-1.8,8.2L27,57.4c-0.1,0.1-0.1,0.3-0.2,0.5  c-0.1,0.6,0.4,1.2,1.1,1.3c0.5,0,0.9-0.2,1.1-0.6l2.4-4c0.1-0.1,0.2-0.4,0.2-0.5l0.6-2.7l2.5,2.7l0.8,4.1c0.1,0.5,0.5,0.9,1.1,0.9  c0.6,0.1,1.2-0.4,1.3-1.1c0-0.1,0-0.1,0-0.2L37,53.5c0-0.1-0.1-0.3-0.1-0.4l-3.1-3.6l0.8-3.4l0.7,1.3c0,0.1,0.1,0.2,0.2,0.2l2.6,1.8  c0.1,0.1,0.2,0.1,0.4,0.1c0.4,0,0.8-0.3,0.8-0.7c0-0.3-0.1-0.5-0.3-0.7l-2.4-1.6L34.8,43c-0.3-0.5-0.8-0.8-1.4-0.9  C32.9,42.1,32.5,42.2,32.2,42.5z M33.6,41.8c1,0.1,1.8-0.6,1.9-1.6c0.1-1-0.6-1.8-1.6-1.9c-1-0.1-1.8,0.6-1.9,1.6  C32,40.9,32.7,41.7,33.6,41.8z M57.4,42.5l-3.5,2.8c-0.1,0.1-0.2,0.2-0.2,0.4l-0.8,3.4v0.1c0,0.4,0.3,0.8,0.7,0.8s0.7-0.3,0.8-0.6  l0.6-2.9l1.2-1l-1.8,8.2l-2.2,3.7c-0.1,0.1-0.1,0.3-0.2,0.5c-0.1,0.6,0.4,1.2,1.1,1.3c0.5,0,0.9-0.2,1.1-0.6l2.4-4  c0.1-0.1,0.2-0.4,0.2-0.5l0.6-2.7l2.5,2.7l0.8,4.1c0.1,0.5,0.5,0.9,1.1,0.9c0.6,0.1,1.2-0.4,1.3-1.1c0-0.1,0-0.1,0-0.2l-0.8-4.4  c0-0.1-0.1-0.3-0.1-0.4L59,49.5l0.8-3.4l0.7,1.3c0,0.1,0.1,0.2,0.2,0.2l2.6,1.8c0.1,0.1,0.2,0.1,0.4,0.1c0.4,0,0.8-0.3,0.8-0.7  c0-0.3-0.1-0.5-0.3-0.7l-2.4-1.6L60,43c-0.3-0.5-0.8-0.8-1.4-0.9C58.1,42.1,57.7,42.2,57.4,42.5z M58.9,41.8c1,0.1,1.8-0.6,1.9-1.6  c0.1-1-0.6-1.8-1.6-1.9c-1-0.1-1.8,0.6-1.9,1.6C57.2,40.9,57.9,41.7,58.9,41.8z M69.7,42.5l-3.5,2.8c-0.1,0.1-0.2,0.2-0.2,0.4  l-0.8,3.4v0.1c0,0.4,0.3,0.8,0.7,0.8c0.4,0,0.7-0.3,0.8-0.6l0.6-2.9l1.2-1l-1.8,8.2l-2.2,3.7c-0.1,0.1-0.1,0.3-0.2,0.5  c-0.1,0.6,0.4,1.2,1.1,1.3c0.5,0,0.9-0.2,1.1-0.6l2.4-4c0.1-0.1,0.2-0.4,0.2-0.5l0.6-2.7l2.5,2.7l0.8,4.1c0.1,0.5,0.5,0.9,1.1,0.9  c0.6,0.1,1.2-0.4,1.3-1.1c0-0.1,0-0.1,0-0.2l-0.8-4.4c0-0.1-0.1-0.3-0.1-0.4l-3.1-3.6l0.8-3.4l0.7,1.3c0,0.1,0.1,0.2,0.2,0.2  l2.6,1.8c0.1,0.1,0.2,0.1,0.4,0.1c0.4,0,0.8-0.3,0.8-0.7c0-0.3-0.1-0.5-0.3-0.7l-2.4-1.6L72.3,43c-0.3-0.5-0.8-0.8-1.4-0.9  C70.5,42.1,70.1,42.2,69.7,42.5z M71.2,41.8c1,0.1,1.8-0.6,1.9-1.6s-0.6-1.8-1.6-1.9c-1-0.1-1.8,0.6-1.9,1.6  C69.5,40.9,70.3,41.7,71.2,41.8z"/></svg>